#N canvas 15 45 1280 747 12;
#X obj 166 39 tgl 15 0 empty empty empty 17 7 0 10 #fcfcfc #000000
#000000 0 1;
#X obj 186 85 metro 300;
#X obj 429 652 dac~;
#N canvas 0 23 450 300 arrays 0;
#N canvas 0 22 450 278 (subpatch) 0;
#X array mel 8 float 3;
#A 0 50 50 50 56 0 0 0 0;
#X coords 0 128 8 0 200 140 1 0 0;
#X restore 455 65 graph;
#X restore 789 30 pd arrays;
#X obj 454 474 *~ 0.2;
#X msg 280 30 150;
#X msg 339 32 300;
#N canvas 266 25 785 747 theme1 1;
#X obj 161 132 f;
#X obj 161 156 + 1;
#X obj 162 180 mod 4;
#X obj 70 329 tabread mel;
#X floatatom 30 258 5 0 0 0 - - - 0;
#X obj 195 436 mtof;
#X obj 195 460 osc~;
#X obj 201 625 *~;
#X floatatom 250 562 5 0 0 0 - - - 0;
#X obj 249 586 / 100;
#X obj 87 181 random 4;
#X obj 91 501 vline~;
#X obj 91 525 *~;
#X obj 70 353 change;
#X msg 24 433 1 15 \, 0 350 20;
#X obj 89 261 spigot;
#X obj 168 261 spigot;
#X obj 230 190 tgl 15 0 empty empty empty 17 7 0 10 #fcfcfc #000000
#000000 0 1;
#X obj 129 235 == 0;
#X obj 349 140 f;
#X obj 349 164 + 1;
#X obj 349 212 sel 0;
#X obj 349 260 tabread mel;
#X obj 349 284 - 12;
#X obj 349 313 change;
#X obj 453 528 *~;
#X floatatom 399 473 5 0 0 0 - - - 0;
#X obj 399 496 / 100;
#X obj 347 347 mtof;
#X obj 349 236 random 4;
#X obj 349 188 mod 3;
#X obj 667 200 *~;
#X floatatom 667 115 0 0 0 0 - - - 0;
#X floatatom 597 160 0 0 0 0 - - - 0;
#X obj 597 230 +~;
#X floatatom 685 170 0 0 0 0 - - - 0;
#X obj 597 276 osc~;
#X obj 667 140 osc~;
#X obj 631 131 * 2;
#X obj 244 467 osc~;
#X obj 251 437 * 2;
#X obj 244 491 *~ 0.3;
#X obj 56 619 vline~;
#X obj 56 643 *~;
#X obj 64 403 t b b f;
#X msg -11 551 1 15 \, 0 250 20;
#X obj 489 764 delwrite~ ane 2000;
#X floatatom 586 465 5 0 0 0 - - - 0;
#X obj 562 567 *~;
#X floatatom 697 519 5 0 0 0 - - - 0;
#X obj 697 542 / 100;
#X obj 562 543 delread4~ ane;
#X obj 586 488 sig~;
#X obj 594 661 *~;
#X floatatom 640 600 5 0 0 0 - - - 0;
#X obj 640 623 / 100;
#X obj 586 512 lop~ 1;
#X obj 87 65 inlet;
#X obj 223 893 outlet~;
#X msg 588 439 600;
#X msg 701 482 99;
#X msg 672 578 59;
#X msg 439 448 43;
#X msg 277 538 100;
#X obj 579 373 bng 15 250 50 0 empty empty empty 17 7 0 10 #fcfcfc
#000000 #000000;
#X obj 606 336 loadbang;
#X msg 259 158 0;
#X msg 525 436 150;
#X msg 646 415 300;
#X msg 691 403 75;
#X msg 506 498 900;
#N canvas 0 23 1162 851 pan 0;
#X obj 664 33 inlet;
#X obj 602 148 / 100;
#X msg 532 197 1;
#X obj 532 222 -;
#X obj 602 175 t f b;
#X obj 535 280 *;
#X obj 662 271 *;
#X obj 603 119 random 100;
#X obj 626 33 bng 15 250 50 0 empty empty empty 17 7 0 10 #fcfcfc #000000
#000000;
#X obj 416 64 inlet~;
#X obj 478 397 *~;
#X obj 697 403 *~;
#X obj 658 350 lop~ 10;
#X obj 662 295 sig~;
#X obj 528 368 lop~ 10;
#X obj 532 313 sig~;
#X obj 479 439 outlet~;
#X obj 694 438 outlet~;
#X obj 719 64 random 100;
#X obj 719 88 < 40;
#X obj 719 112 sel 1;
#X floatatom 836 84 5 0 0 0 - - - 0;
#X connect 0 0 18 0;
#X connect 1 0 4 0;
#X connect 1 0 6 0;
#X connect 1 0 6 1;
#X connect 2 0 3 0;
#X connect 3 0 5 0;
#X connect 3 0 5 1;
#X connect 4 0 3 1;
#X connect 4 1 2 0;
#X connect 5 0 15 0;
#X connect 6 0 13 0;
#X connect 7 0 1 0;
#X connect 8 0 7 0;
#X connect 9 0 10 0;
#X connect 9 0 11 0;
#X connect 10 0 16 0;
#X connect 11 0 17 0;
#X connect 12 0 11 1;
#X connect 13 0 12 0;
#X connect 14 0 10 1;
#X connect 15 0 14 0;
#X connect 18 0 19 0;
#X connect 19 0 20 0;
#X connect 20 0 7 0;
#X connect 21 0 19 1;
#X restore 543 800 pd pan;
#X obj 332 883 outlet~;
#N canvas 0 23 1162 851 pan 0;
#X obj 664 33 inlet;
#X obj 602 148 / 100;
#X msg 532 197 1;
#X obj 532 222 -;
#X obj 602 175 t f b;
#X obj 535 280 *;
#X obj 662 271 *;
#X obj 603 119 random 100;
#X obj 626 33 bng 15 250 50 0 empty empty empty 17 7 0 10 #fcfcfc #000000
#000000;
#X obj 416 64 inlet~;
#X obj 478 397 *~;
#X obj 697 403 *~;
#X obj 658 350 lop~ 10;
#X obj 662 295 sig~;
#X obj 528 368 lop~ 10;
#X obj 532 313 sig~;
#X obj 479 439 outlet~;
#X obj 694 438 outlet~;
#X obj 719 64 random 100;
#X obj 719 88 < 40;
#X obj 719 112 sel 1;
#X floatatom 836 84 5 0 0 0 - - - 0;
#X connect 0 0 18 0;
#X connect 1 0 4 0;
#X connect 1 0 6 0;
#X connect 1 0 6 1;
#X connect 2 0 3 0;
#X connect 3 0 5 0;
#X connect 3 0 5 1;
#X connect 4 0 3 1;
#X connect 4 1 2 0;
#X connect 5 0 15 0;
#X connect 6 0 13 0;
#X connect 7 0 1 0;
#X connect 8 0 7 0;
#X connect 9 0 10 0;
#X connect 9 0 11 0;
#X connect 10 0 16 0;
#X connect 11 0 17 0;
#X connect 12 0 11 1;
#X connect 13 0 12 0;
#X connect 14 0 10 1;
#X connect 15 0 14 0;
#X connect 18 0 19 0;
#X connect 19 0 20 0;
#X connect 20 0 7 0;
#X connect 21 0 19 1;
#X restore 113 789 pd pan;
#X obj 117 744 *~ 0.5;
#X obj 77 778 env~;
#X floatatom 77 802 5 0 0 0 - - - 0;
#N canvas 0 23 1162 851 pan 0;
#X obj 664 33 inlet;
#X obj 602 148 / 100;
#X msg 532 197 1;
#X obj 532 222 -;
#X obj 602 175 t f b;
#X obj 535 280 *;
#X obj 662 271 *;
#X obj 603 119 random 100;
#X obj 626 33 bng 15 250 50 0 empty empty empty 17 7 0 10 #fcfcfc #000000
#000000;
#X obj 416 64 inlet~;
#X obj 478 397 *~;
#X obj 697 403 *~;
#X obj 658 350 lop~ 10;
#X obj 662 295 sig~;
#X obj 528 368 lop~ 10;
#X obj 532 313 sig~;
#X obj 479 439 outlet~;
#X obj 694 438 outlet~;
#X obj 719 64 random 100;
#X obj 719 88 < 40;
#X obj 719 112 sel 1;
#X floatatom 836 84 5 0 0 0 - - - 0;
#X connect 0 0 18 0;
#X connect 1 0 4 0;
#X connect 1 0 6 0;
#X connect 1 0 6 1;
#X connect 2 0 3 0;
#X connect 3 0 5 0;
#X connect 3 0 5 1;
#X connect 4 0 3 1;
#X connect 4 1 2 0;
#X connect 5 0 15 0;
#X connect 6 0 13 0;
#X connect 7 0 1 0;
#X connect 8 0 7 0;
#X connect 9 0 10 0;
#X connect 9 0 11 0;
#X connect 10 0 16 0;
#X connect 11 0 17 0;
#X connect 12 0 11 1;
#X connect 13 0 12 0;
#X connect 14 0 10 1;
#X connect 15 0 14 0;
#X connect 18 0 19 0;
#X connect 19 0 20 0;
#X connect 20 0 7 0;
#X connect 21 0 19 1;
#X restore 215 758 pd pan;
#X obj 219 713 *~ 0.5;
#X obj 301 703 *~;
#X floatatom 333 622 5 0 0 0 - - - 0;
#X obj 333 645 / 100;
#X msg 373 597 43;
#X obj 703 278 tgl 15 0 empty empty empty 17 7 0 10 #fcfcfc #000000
#000000 0 1;
#X obj 703 326 random 5;
#X obj 703 360 sel 0 1 2 3 4;
#X obj 703 302 metro 30000;
#X connect 0 0 1 0;
#X connect 1 0 2 0;
#X connect 2 0 0 1;
#X connect 2 0 16 0;
#X connect 3 0 4 0;
#X connect 3 0 13 0;
#X connect 5 0 6 0;
#X connect 5 0 40 0;
#X connect 6 0 12 1;
#X connect 7 0 46 0;
#X connect 7 0 74 0;
#X connect 8 0 9 0;
#X connect 9 0 7 1;
#X connect 10 0 15 0;
#X connect 11 0 12 0;
#X connect 12 0 7 0;
#X connect 13 0 44 0;
#X connect 14 0 11 0;
#X connect 15 0 3 0;
#X connect 16 0 3 0;
#X connect 17 0 16 1;
#X connect 17 0 18 0;
#X connect 18 0 15 1;
#X connect 19 0 20 0;
#X connect 20 0 30 0;
#X connect 21 0 29 0;
#X connect 22 0 23 0;
#X connect 23 0 24 0;
#X connect 24 0 28 0;
#X connect 25 0 46 0;
#X connect 26 0 27 0;
#X connect 27 0 25 1;
#X connect 28 0 33 0;
#X connect 29 0 22 0;
#X connect 30 0 19 1;
#X connect 30 0 21 0;
#X connect 31 0 34 1;
#X connect 32 0 37 0;
#X connect 33 0 34 0;
#X connect 33 0 38 0;
#X connect 33 0 35 0;
#X connect 34 0 36 0;
#X connect 35 0 31 1;
#X connect 36 0 25 0;
#X connect 36 0 79 0;
#X connect 37 0 31 0;
#X connect 38 0 32 0;
#X connect 39 0 41 0;
#X connect 40 0 39 0;
#X connect 41 0 43 1;
#X connect 42 0 43 0;
#X connect 43 0 7 0;
#X connect 44 0 14 0;
#X connect 44 1 45 0;
#X connect 44 2 5 0;
#X connect 45 0 42 0;
#X connect 47 0 52 0;
#X connect 48 0 71 0;
#X connect 49 0 50 0;
#X connect 50 0 48 1;
#X connect 51 0 48 0;
#X connect 51 0 53 0;
#X connect 52 0 56 0;
#X connect 53 0 46 0;
#X connect 54 0 55 0;
#X connect 55 0 53 1;
#X connect 56 0 51 0;
#X connect 57 0 0 0;
#X connect 57 0 10 0;
#X connect 57 0 19 0;
#X connect 57 0 71 1;
#X connect 57 0 73 1;
#X connect 57 0 77 1;
#X connect 59 0 47 0;
#X connect 60 0 49 0;
#X connect 61 0 54 0;
#X connect 62 0 26 0;
#X connect 63 0 8 0;
#X connect 64 0 59 0;
#X connect 64 0 60 0;
#X connect 64 0 61 0;
#X connect 64 0 62 0;
#X connect 64 0 63 0;
#X connect 64 0 66 0;
#X connect 64 0 82 0;
#X connect 65 0 64 0;
#X connect 66 0 17 0;
#X connect 67 0 47 0;
#X connect 68 0 47 0;
#X connect 69 0 47 0;
#X connect 70 0 47 0;
#X connect 71 0 58 0;
#X connect 71 1 72 0;
#X connect 73 0 58 0;
#X connect 73 1 72 0;
#X connect 74 0 73 0;
#X connect 75 0 76 0;
#X connect 77 0 58 0;
#X connect 77 1 72 0;
#X connect 78 0 77 0;
#X connect 79 0 78 0;
#X connect 80 0 81 0;
#X connect 81 0 79 1;
#X connect 82 0 80 0;
#X connect 83 0 86 0;
#X connect 84 0 85 0;
#X connect 85 0 70 0;
#X connect 85 1 67 0;
#X connect 85 2 59 0;
#X connect 85 3 68 0;
#X connect 85 4 69 0;
#X connect 86 0 84 0;
#X restore 129 219 pd theme1;
#N canvas 0 25 1280 747 theme2 0;
#X obj 447 301 delread4~ ana;
#X obj 326 243 delwrite~ ana 2000;
#X obj 478 402 *~;
#X obj 470 248 phasor~ 5;
#X obj 547 215 + 3;
#X obj 470 272 *~ 10;
#X floatatom 648 153 5 0 0 0 - - - 0;
#X floatatom 547 239 5 0 0 0 - - - 0;
#X obj 228 217 osc~;
#X obj 349 118 random 4;
#X obj 349 142 tabread mel;
#X obj 309 196 mtof;
#X obj 713 113 random 400;
#X obj 713 137 + 500;
#X obj 701 319 osc~ 0.2;
#X obj 364 626 outlet~;
#X obj 772 292 / 1000;
#X floatatom 772 316 5 0 0 0 - - - 0;
#X obj 772 268 random 1000;
#X obj 571 114 random 100;
#X obj 571 138 <;
#X floatatom 653 60 5 0 0 0 - - - 0;
#X obj 586 160 sel 1;
#X obj 349 165 - 36;
#X obj 345 82 sel 1;
#X obj 349 11 inlet;
#X obj 349 35 random 100;
#X obj 349 59 <;
#X floatatom 476 40 5 0 0 0 - - - 0;
#X obj 547 191 random 30;
#X obj 701 343 *~ 0.4;
#X floatatom 698 199 5 0 0 0 - - - 0;
#X msg 802 195 30;
#X obj 880 16 loadbang;
#X obj 880 40 bng 15 250 50 0 empty empty empty 17 7 0 10 #fcfcfc #000000
#000000;
#X msg 741 58 40;
#N canvas 0 23 1162 851 pan 0;
#X obj 664 33 inlet;
#X obj 602 148 / 100;
#X msg 532 197 1;
#X obj 532 222 -;
#X obj 602 175 t f b;
#X obj 535 280 *;
#X obj 662 271 *;
#X obj 603 119 random 100;
#X obj 626 33 bng 15 250 50 0 empty empty empty 17 7 0 10 #fcfcfc #000000
#000000;
#X obj 416 64 inlet~;
#X obj 478 397 *~;
#X obj 697 403 *~;
#X obj 658 350 lop~ 10;
#X obj 662 295 sig~;
#X obj 528 368 lop~ 10;
#X obj 532 313 sig~;
#X obj 479 439 outlet~;
#X obj 694 438 outlet~;
#X obj 719 64 random 100;
#X obj 719 112 sel 1;
#X floatatom 836 84 5 0 0 0 - - - 0;
#X obj 933 29 inlet;
#X obj 719 88 < 20;
#X connect 0 0 18 0;
#X connect 1 0 4 0;
#X connect 1 0 6 0;
#X connect 1 0 6 1;
#X connect 2 0 3 0;
#X connect 3 0 5 0;
#X connect 3 0 5 1;
#X connect 4 0 3 1;
#X connect 4 1 2 0;
#X connect 5 0 15 0;
#X connect 6 0 13 0;
#X connect 7 0 1 0;
#X connect 8 0 7 0;
#X connect 9 0 10 0;
#X connect 9 0 11 0;
#X connect 10 0 16 0;
#X connect 11 0 17 0;
#X connect 12 0 11 1;
#X connect 13 0 12 0;
#X connect 14 0 10 1;
#X connect 15 0 14 0;
#X connect 18 0 22 0;
#X connect 19 0 7 0;
#X connect 20 0 22 1;
#X connect 21 0 22 1;
#X connect 22 0 19 0;
#X restore 371 536 pd pan;
#X obj 589 592 outlet~;
#N canvas 0 23 1162 851 pan 0;
#X obj 664 33 inlet;
#X obj 602 148 / 100;
#X msg 532 197 1;
#X obj 532 222 -;
#X obj 602 175 t f b;
#X obj 535 280 *;
#X obj 662 271 *;
#X obj 603 119 random 100;
#X obj 626 33 bng 15 250 50 0 empty empty empty 17 7 0 10 #fcfcfc #000000
#000000;
#X obj 416 64 inlet~;
#X obj 478 397 *~;
#X obj 697 403 *~;
#X obj 658 350 lop~ 10;
#X obj 662 295 sig~;
#X obj 528 368 lop~ 10;
#X obj 532 313 sig~;
#X obj 479 439 outlet~;
#X obj 694 438 outlet~;
#X obj 719 64 random 100;
#X obj 719 112 sel 1;
#X floatatom 836 84 5 0 0 0 - - - 0;
#X obj 719 88 < 20;
#X obj 917 34 inlet;
#X connect 0 0 18 0;
#X connect 1 0 4 0;
#X connect 1 0 6 0;
#X connect 1 0 6 1;
#X connect 2 0 3 0;
#X connect 3 0 5 0;
#X connect 3 0 5 1;
#X connect 4 0 3 1;
#X connect 4 1 2 0;
#X connect 5 0 15 0;
#X connect 6 0 13 0;
#X connect 7 0 1 0;
#X connect 8 0 7 0;
#X connect 9 0 10 0;
#X connect 9 0 11 0;
#X connect 10 0 16 0;
#X connect 11 0 17 0;
#X connect 12 0 11 1;
#X connect 13 0 12 0;
#X connect 14 0 10 1;
#X connect 15 0 14 0;
#X connect 18 0 21 0;
#X connect 19 0 7 0;
#X connect 20 0 21 1;
#X connect 21 0 19 0;
#X connect 22 0 21 1;
#X restore 488 552 pd pan;
#X obj 374 503 lop~ 6000;
#X floatatom 469 473 5 0 0 0 - - - 0;
#X msg 432 457 4000;
#X connect 0 0 2 0;
#X connect 2 0 1 0;
#X connect 2 0 39 0;
#X connect 3 0 5 0;
#X connect 4 0 3 0;
#X connect 4 0 7 0;
#X connect 5 0 0 0;
#X connect 8 0 1 0;
#X connect 9 0 10 0;
#X connect 10 0 23 0;
#X connect 11 0 8 0;
#X connect 12 0 13 0;
#X connect 13 0 5 1;
#X connect 13 0 6 0;
#X connect 14 0 30 0;
#X connect 16 0 14 0;
#X connect 16 0 17 0;
#X connect 18 0 16 0;
#X connect 19 0 20 0;
#X connect 20 0 22 0;
#X connect 21 0 20 1;
#X connect 22 0 12 0;
#X connect 23 0 11 0;
#X connect 24 0 9 0;
#X connect 24 0 18 0;
#X connect 24 0 19 0;
#X connect 24 0 29 0;
#X connect 25 0 26 0;
#X connect 25 0 36 1;
#X connect 25 0 38 1;
#X connect 26 0 27 0;
#X connect 27 0 24 0;
#X connect 28 0 27 1;
#X connect 29 0 4 0;
#X connect 30 0 2 1;
#X connect 31 0 4 1;
#X connect 32 0 29 1;
#X connect 33 0 34 0;
#X connect 34 0 35 0;
#X connect 35 0 20 1;
#X connect 35 0 27 1;
#X connect 36 0 15 0;
#X connect 36 1 37 0;
#X connect 38 0 15 0;
#X connect 38 1 37 0;
#X connect 39 0 36 0;
#X connect 39 0 38 0;
#X connect 40 0 39 1;
#X connect 41 0 39 1;
#X restore 412 227 pd theme2;
#X floatatom 469 266 5 0 0 0 - - - 0;
#X obj 470 292 / 100;
#X msg 533 232 0;
#N canvas 159 29 917 747 theme3 1;
#X obj 140 105 inlet;
#X obj 326 810 outlet~;
#X obj 115 148 random 4;
#X obj 115 172 tabread mel;
#X obj 115 196 mtof;
#X obj 83 310 osc~;
#X obj 171 315 osc~;
#X obj 165 279 * 2;
#X obj 276 307 osc~;
#X obj 270 271 * 3;
#X obj 392 313 osc~;
#X obj 386 277 * 4;
#X obj 83 332 /~ 1;
#X obj 173 363 /~ 2;
#X obj 278 354 /~ 3;
#X obj 394 361 /~ 4;
#X obj 471 309 osc~;
#X obj 531 308 osc~;
#X obj 610 304 osc~;
#X obj 465 273 * 5;
#X obj 525 272 * 6;
#X obj 604 268 * 7;
#X obj 473 357 /~ 5;
#X obj 533 356 /~ 6;
#X obj 612 352 /~ 7;
#X obj 322 670 *~ 0.3;
#X obj 146 474 delwrite~ asi 2000;
#X obj 371 597 delread4~ asi;
#X obj 595 413 bng 15 250 50 0 empty empty empty 17 7 0 10 #fcfcfc
#000000 #000000;
#X obj 595 437 random 600;
#X obj 554 507 *~;
#X obj 322 694 lop~ 1000;
#X obj 371 621 *~;
#X floatatom 514 626 5 0 0 0 - - - 0;
#X obj 514 649 / 100;
#X obj 438 457 bng 15 250 50 0 empty empty empty 17 7 0 10 #fcfcfc
#000000 #000000;
#X obj 438 481 random 60;
#X obj 438 505 / 60;
#X obj 516 400 tgl 15 0 empty empty empty 17 7 0 10 #fcfcfc #000000
#000000 0 1;
#X obj 559 536 lop~ 100;
#X floatatom 677 501 5 0 0 0 - - - 0;
#X obj 595 461 + 400;
#X obj 698 151 random 100;
#X obj 698 175 <;
#X obj 698 199 sel 1;
#X floatatom 764 186 5 0 0 0 - - - 0;
#X floatatom 360 522 5 0 0 0 - - - 0;
#X obj 440 531 sig~;
#X obj 489 427 metro 1;
#X floatatom 551 401 5 0 0 0 - - - 0;
#X obj 440 555 lop~ 5;
#X floatatom 503 506 5 0 0 0 - - - 0;
#X msg 838 142 34;
#X msg 727 479 1240;
#X msg 659 391 126;
#X msg 605 501 398;
#X msg 567 604 94;
#X obj 748 361 loadbang;
#N canvas 0 25 1162 747 pan 0;
#X obj 664 33 inlet;
#X obj 602 148 / 100;
#X msg 532 197 1;
#X obj 532 222 -;
#X obj 602 175 t f b;
#X obj 535 280 *;
#X obj 662 271 *;
#X obj 603 119 random 100;
#X obj 626 33 bng 15 250 50 0 empty empty empty 17 7 0 10 #fcfcfc #000000
#000000;
#X obj 416 64 inlet~;
#X obj 478 397 *~;
#X obj 697 403 *~;
#X obj 658 350 lop~ 10;
#X obj 662 295 sig~;
#X obj 528 368 lop~ 10;
#X obj 532 313 sig~;
#X obj 479 439 outlet~;
#X obj 694 438 outlet~;
#X obj 719 64 random 100;
#X obj 719 88 < 40;
#X obj 719 112 sel 1;
#X floatatom 836 84 5 0 0 0 - - - 0;
#X connect 0 0 18 0;
#X connect 1 0 4 0;
#X connect 1 0 6 0;
#X connect 1 0 6 1;
#X connect 2 0 3 0;
#X connect 3 0 5 0;
#X connect 3 0 5 1;
#X connect 4 0 3 1;
#X connect 4 1 2 0;
#X connect 5 0 15 0;
#X connect 6 0 13 0;
#X connect 7 0 1 0;
#X connect 8 0 7 0;
#X connect 9 0 10 0;
#X connect 9 0 11 0;
#X connect 10 0 16 0;
#X connect 11 0 17 0;
#X connect 12 0 11 1;
#X connect 13 0 12 0;
#X connect 14 0 10 1;
#X connect 15 0 14 0;
#X connect 18 0 19 0;
#X connect 19 0 20 0;
#X connect 20 0 7 0;
#X connect 21 0 19 1;
#X restore 413 737 pd pan;
#X obj 469 782 outlet~;
#X connect 0 0 2 0;
#X connect 0 0 42 0;
#X connect 0 0 58 1;
#X connect 2 0 3 0;
#X connect 3 0 4 0;
#X connect 4 0 7 0;
#X connect 4 0 21 0;
#X connect 4 0 20 0;
#X connect 4 0 19 0;
#X connect 4 0 11 0;
#X connect 4 0 9 0;
#X connect 4 0 5 0;
#X connect 5 0 12 0;
#X connect 6 0 13 0;
#X connect 7 0 6 0;
#X connect 8 0 14 0;
#X connect 9 0 8 0;
#X connect 10 0 15 0;
#X connect 11 0 10 0;
#X connect 13 0 26 0;
#X connect 14 0 26 0;
#X connect 15 0 26 0;
#X connect 16 0 22 0;
#X connect 17 0 23 0;
#X connect 18 0 24 0;
#X connect 19 0 16 0;
#X connect 20 0 17 0;
#X connect 21 0 18 0;
#X connect 22 0 26 0;
#X connect 23 0 26 0;
#X connect 24 0 26 0;
#X connect 25 0 31 0;
#X connect 27 0 25 0;
#X connect 27 0 32 0;
#X connect 28 0 29 0;
#X connect 29 0 41 0;
#X connect 30 0 39 0;
#X connect 31 0 58 0;
#X connect 32 0 26 0;
#X connect 33 0 34 0;
#X connect 34 0 32 1;
#X connect 35 0 36 0;
#X connect 36 0 37 0;
#X connect 37 0 46 0;
#X connect 37 0 47 0;
#X connect 38 0 48 0;
#X connect 39 0 27 0;
#X connect 40 0 39 1;
#X connect 41 0 30 0;
#X connect 42 0 43 0;
#X connect 43 0 44 0;
#X connect 44 0 28 0;
#X connect 45 0 43 1;
#X connect 47 0 50 0;
#X connect 48 0 36 0;
#X connect 49 0 48 1;
#X connect 50 0 30 1;
#X connect 51 0 50 1;
#X connect 52 0 45 0;
#X connect 53 0 40 0;
#X connect 54 0 49 0;
#X connect 55 0 51 0;
#X connect 56 0 33 0;
#X connect 57 0 56 0;
#X connect 57 0 53 0;
#X connect 57 0 54 0;
#X connect 57 0 55 0;
#X connect 57 0 52 0;
#X connect 58 0 1 0;
#X connect 58 1 59 0;
#X restore 636 231 pd theme3;
#X floatatom 709 301 5 0 0 0 - - - 0;
#X obj 711 328 / 100;
#X obj 562 348 *~;
#X msg 774 268 0;
#N canvas 0 25 1280 747 theme4 0;
#X obj 410 37 inlet;
#X obj 401 138 metro 100;
#X obj 410 61 t b f;
#X msg 408 104 1;
#X msg 338 121 0;
#X obj 365 385 random 100;
#X obj 365 409 < 40;
#X obj 365 433 sel 1;
#X obj 176 449 metro 2;
#X obj 176 497 osc~;
#X obj 185 543 *~;
#X obj 361 920 outlet~;
#X floatatom 67 445 5 0 0 0 - - - 0;
#X obj 67 468 / 100;
#X obj 177 392 tgl 15 0 empty empty empty 17 7 0 10 #fcfcfc #000000
#000000 0 1;
#X obj 176 473 random 900;
#X floatatom 259 426 5 0 0 0 - - - 0;
#X obj 295 290 bng 15 250 50 0 empty empty empty 17 7 0 10 #fcfcfc
#000000 #000000;
#X obj 457 100 / 2;
#X obj 322 574 vline~;
#X obj 322 598 *~;
#X msg 364 501 0 \, 1 5 \, 0 200 5;
#X obj 329 468 bng 15 250 50 0 empty empty empty 17 7 0 10 #fcfcfc
#000000 #000000;
#X floatatom 329 488 5 0 0 0 - - - 0;
#X floatatom 427 411 5 0 0 0 - - - 0;
#X obj 547 386 random 100;
#X obj 547 410 < 40;
#X obj 547 434 sel 1;
#X obj 504 575 vline~;
#X obj 504 599 *~;
#X obj 511 469 bng 15 250 50 0 empty empty empty 17 7 0 10 #fcfcfc
#000000 #000000;
#X floatatom 511 489 5 0 0 0 - - - 0;
#X floatatom 609 412 5 0 0 0 - - - 0;
#X obj 322 622 lop~ 200;
#X obj 710 507 metro 2;
#X obj 711 450 tgl 15 0 empty empty empty 17 7 0 10 #fcfcfc #000000
#000000 0 1;
#X obj 710 531 random 900;
#X floatatom 793 484 5 0 0 0 - - - 0;
#X obj 710 555 phasor~;
#X obj 710 579 -~ 0.5;
#X obj 710 603 *~ 1.5;
#X floatatom 605 637 5 0 0 0 - - - 0;
#X obj 469 655 lop~ 200;
#X msg 546 502 0 \, 1 5 \, 0 200 5;
#X obj 1024 473 line~;
#X obj 1024 497 osc~;
#X obj 1085 561 vline~;
#X obj 1023 537 *~;
#X obj 1090 349 bng 15 250 50 0 empty empty empty 17 7 0 10 #fcfcfc
#000000 #000000;
#X obj 1073 374 t b b;
#X obj 916 231 random 100;
#X obj 916 255 < 40;
#X obj 916 279 sel 1;
#X floatatom 978 257 5 0 0 0 - - - 0;
#X obj 986 634 *~ 2;
#X msg 1127 488 0 \, 1 5 \, 0 100 5;
#X obj 796 789 delread4~ dr;
#X obj 961 741 delwrite~ dr 2000;
#X floatatom 796 723 5 0 0 0 - - - 0;
#X obj 834 871 *~;
#X floatatom 916 828 5 0 0 0 - - - 0;
#X obj 916 851 / 100;
#X obj 609 796 *~;
#X floatatom 688 795 5 0 0 0 - - - 0;
#X obj 688 818 / 100;
#X msg 173 355 1;
#X msg 94 404 102;
#X msg 279 336 37;
#X msg 631 378 44;
#X msg 867 321 44;
#X msg 983 823 88;
#X msg 694 762 78;
#X obj 745 254 bng 15 250 50 0 empty empty empty 17 7 0 10 #fcfcfc
#000000 #000000;
#X obj 739 149 loadbang;
#X obj 979 368 random 20;
#X obj 979 392 + 140;
#X msg 1024 424 \$1 \, 50 30;
#N canvas 0 23 1162 851 pan 0;
#X obj 664 33 inlet;
#X obj 602 148 / 100;
#X msg 532 197 1;
#X obj 532 222 -;
#X obj 602 175 t f b;
#X obj 535 280 *;
#X obj 662 271 *;
#X obj 603 119 random 100;
#X obj 626 33 bng 15 250 50 0 empty empty empty 17 7 0 10 #fcfcfc #000000
#000000;
#X obj 416 64 inlet~;
#X obj 478 397 *~;
#X obj 697 403 *~;
#X obj 658 350 lop~ 10;
#X obj 662 295 sig~;
#X obj 528 368 lop~ 10;
#X obj 532 313 sig~;
#X obj 479 439 outlet~;
#X obj 694 438 outlet~;
#X obj 719 64 random 100;
#X obj 719 88 < 40;
#X obj 719 112 sel 1;
#X floatatom 836 84 5 0 0 0 - - - 0;
#X connect 0 0 18 0;
#X connect 1 0 4 0;
#X connect 1 0 6 0;
#X connect 1 0 6 1;
#X connect 2 0 3 0;
#X connect 3 0 5 0;
#X connect 3 0 5 1;
#X connect 4 0 3 1;
#X connect 4 1 2 0;
#X connect 5 0 15 0;
#X connect 6 0 13 0;
#X connect 7 0 1 0;
#X connect 8 0 7 0;
#X connect 9 0 10 0;
#X connect 9 0 11 0;
#X connect 10 0 16 0;
#X connect 11 0 17 0;
#X connect 12 0 11 1;
#X connect 13 0 12 0;
#X connect 14 0 10 1;
#X connect 15 0 14 0;
#X connect 18 0 19 0;
#X connect 19 0 20 0;
#X connect 20 0 7 0;
#X connect 21 0 19 1;
#X restore 583 887 pd pan;
#X obj 759 923 outlet~;
#X msg 547 803 44;
#N canvas 0 23 1162 851 pan 0;
#X obj 664 33 inlet;
#X obj 602 148 / 100;
#X msg 532 197 1;
#X obj 532 222 -;
#X obj 602 175 t f b;
#X obj 535 280 *;
#X obj 662 271 *;
#X obj 603 119 random 100;
#X obj 626 33 bng 15 250 50 0 empty empty empty 17 7 0 10 #fcfcfc #000000
#000000;
#X obj 416 64 inlet~;
#X obj 478 397 *~;
#X obj 697 403 *~;
#X obj 658 350 lop~ 10;
#X obj 662 295 sig~;
#X obj 528 368 lop~ 10;
#X obj 532 313 sig~;
#X obj 479 439 outlet~;
#X obj 694 438 outlet~;
#X obj 719 64 random 100;
#X obj 719 88 < 40;
#X obj 719 112 sel 1;
#X floatatom 836 84 5 0 0 0 - - - 0;
#X connect 0 0 18 0;
#X connect 1 0 4 0;
#X connect 1 0 6 0;
#X connect 1 0 6 1;
#X connect 2 0 3 0;
#X connect 3 0 5 0;
#X connect 3 0 5 1;
#X connect 4 0 3 1;
#X connect 4 1 2 0;
#X connect 5 0 15 0;
#X connect 6 0 13 0;
#X connect 7 0 1 0;
#X connect 8 0 7 0;
#X connect 9 0 10 0;
#X connect 9 0 11 0;
#X connect 10 0 16 0;
#X connect 11 0 17 0;
#X connect 12 0 11 1;
#X connect 13 0 12 0;
#X connect 14 0 10 1;
#X connect 15 0 14 0;
#X connect 18 0 19 0;
#X connect 19 0 20 0;
#X connect 20 0 7 0;
#X connect 21 0 19 1;
#X restore 358 709 pd pan;
#N canvas 0 23 1162 851 pan 0;
#X obj 664 33 inlet;
#X obj 602 148 / 100;
#X msg 532 197 1;
#X obj 532 222 -;
#X obj 602 175 t f b;
#X obj 535 280 *;
#X obj 662 271 *;
#X obj 603 119 random 100;
#X obj 626 33 bng 15 250 50 0 empty empty empty 17 7 0 10 #fcfcfc #000000
#000000;
#X obj 416 64 inlet~;
#X obj 478 397 *~;
#X obj 697 403 *~;
#X obj 658 350 lop~ 10;
#X obj 662 295 sig~;
#X obj 528 368 lop~ 10;
#X obj 532 313 sig~;
#X obj 479 439 outlet~;
#X obj 694 438 outlet~;
#X obj 719 64 random 100;
#X obj 719 88 < 40;
#X obj 719 112 sel 1;
#X floatatom 836 84 5 0 0 0 - - - 0;
#X connect 0 0 18 0;
#X connect 1 0 4 0;
#X connect 1 0 6 0;
#X connect 1 0 6 1;
#X connect 2 0 3 0;
#X connect 3 0 5 0;
#X connect 3 0 5 1;
#X connect 4 0 3 1;
#X connect 4 1 2 0;
#X connect 5 0 15 0;
#X connect 6 0 13 0;
#X connect 7 0 1 0;
#X connect 8 0 7 0;
#X connect 9 0 10 0;
#X connect 9 0 11 0;
#X connect 10 0 16 0;
#X connect 11 0 17 0;
#X connect 12 0 11 1;
#X connect 13 0 12 0;
#X connect 14 0 10 1;
#X connect 15 0 14 0;
#X connect 18 0 19 0;
#X connect 19 0 20 0;
#X connect 20 0 7 0;
#X connect 21 0 19 1;
#X restore 469 722 pd pan;
#N canvas 0 23 1162 851 pan 0;
#X obj 664 33 inlet;
#X obj 602 148 / 100;
#X msg 532 197 1;
#X obj 532 222 -;
#X obj 602 175 t f b;
#X obj 535 280 *;
#X obj 662 271 *;
#X obj 603 119 random 100;
#X obj 626 33 bng 15 250 50 0 empty empty empty 17 7 0 10 #fcfcfc #000000
#000000;
#X obj 416 64 inlet~;
#X obj 478 397 *~;
#X obj 697 403 *~;
#X obj 658 350 lop~ 10;
#X obj 662 295 sig~;
#X obj 528 368 lop~ 10;
#X obj 532 313 sig~;
#X obj 479 439 outlet~;
#X obj 694 438 outlet~;
#X obj 719 64 random 100;
#X obj 719 88 < 40;
#X obj 719 112 sel 1;
#X floatatom 836 84 5 0 0 0 - - - 0;
#X connect 0 0 18 0;
#X connect 1 0 4 0;
#X connect 1 0 6 0;
#X connect 1 0 6 1;
#X connect 2 0 3 0;
#X connect 3 0 5 0;
#X connect 3 0 5 1;
#X connect 4 0 3 1;
#X connect 4 1 2 0;
#X connect 5 0 15 0;
#X connect 6 0 13 0;
#X connect 7 0 1 0;
#X connect 8 0 7 0;
#X connect 9 0 10 0;
#X connect 9 0 11 0;
#X connect 10 0 16 0;
#X connect 11 0 17 0;
#X connect 12 0 11 1;
#X connect 13 0 12 0;
#X connect 14 0 10 1;
#X connect 15 0 14 0;
#X connect 18 0 19 0;
#X connect 19 0 20 0;
#X connect 20 0 7 0;
#X connect 21 0 19 1;
#X restore 1036 662 pd pan;
#X connect 0 0 2 0;
#X connect 1 0 5 0;
#X connect 1 0 25 0;
#X connect 1 0 50 0;
#X connect 1 0 77 1;
#X connect 1 0 80 1;
#X connect 1 0 81 1;
#X connect 1 0 82 1;
#X connect 2 0 3 0;
#X connect 2 1 18 0;
#X connect 2 1 58 0;
#X connect 3 0 1 0;
#X connect 4 0 1 0;
#X connect 5 0 6 0;
#X connect 6 0 7 0;
#X connect 7 0 21 0;
#X connect 7 0 22 0;
#X connect 8 0 15 0;
#X connect 9 0 10 0;
#X connect 10 0 20 1;
#X connect 12 0 13 0;
#X connect 13 0 10 1;
#X connect 14 0 8 0;
#X connect 15 0 9 0;
#X connect 16 0 8 1;
#X connect 18 0 1 1;
#X connect 19 0 20 0;
#X connect 20 0 33 0;
#X connect 21 0 19 0;
#X connect 22 0 23 0;
#X connect 24 0 6 1;
#X connect 25 0 26 0;
#X connect 26 0 27 0;
#X connect 27 0 43 0;
#X connect 27 0 30 0;
#X connect 28 0 29 0;
#X connect 29 0 42 0;
#X connect 30 0 31 0;
#X connect 32 0 26 1;
#X connect 33 0 57 0;
#X connect 33 0 80 0;
#X connect 34 0 36 0;
#X connect 35 0 34 0;
#X connect 36 0 38 0;
#X connect 37 0 34 1;
#X connect 38 0 39 0;
#X connect 39 0 40 0;
#X connect 40 0 29 1;
#X connect 41 0 42 1;
#X connect 42 0 57 0;
#X connect 42 0 81 0;
#X connect 43 0 28 0;
#X connect 44 0 45 0;
#X connect 45 0 47 0;
#X connect 46 0 47 1;
#X connect 47 0 54 0;
#X connect 48 0 49 0;
#X connect 49 0 55 0;
#X connect 49 1 74 0;
#X connect 50 0 51 0;
#X connect 51 0 52 0;
#X connect 52 0 49 0;
#X connect 53 0 51 1;
#X connect 54 0 57 0;
#X connect 54 0 82 0;
#X connect 55 0 46 0;
#X connect 56 0 59 0;
#X connect 56 0 62 0;
#X connect 58 0 56 0;
#X connect 59 0 57 0;
#X connect 60 0 61 0;
#X connect 61 0 59 1;
#X connect 62 0 77 0;
#X connect 63 0 64 0;
#X connect 64 0 62 1;
#X connect 65 0 14 0;
#X connect 66 0 12 0;
#X connect 67 0 24 0;
#X connect 68 0 32 0;
#X connect 69 0 53 0;
#X connect 70 0 60 0;
#X connect 71 0 63 0;
#X connect 72 0 65 0;
#X connect 72 0 66 0;
#X connect 72 0 67 0;
#X connect 72 0 68 0;
#X connect 72 0 69 0;
#X connect 72 0 70 0;
#X connect 72 0 71 0;
#X connect 72 0 79 0;
#X connect 73 0 72 0;
#X connect 74 0 75 0;
#X connect 75 0 76 0;
#X connect 76 0 44 0;
#X connect 77 0 11 0;
#X connect 77 1 78 0;
#X connect 80 0 11 0;
#X connect 80 1 78 0;
#X connect 81 0 11 0;
#X connect 81 1 78 0;
#X connect 82 0 11 0;
#X connect 82 1 78 0;
#X restore 854 298 pd theme4;
#X obj 854 322 *~;
#X floatatom 997 310 5 0 0 0 - - - 0;
#X obj 997 333 / 100;
#X msg 1001 268 0;
#X obj 522 486 *~ 0.2;
#X obj 887 346 *~;
#X obj 641 357 *~;
#X obj 361 365 *~;
#X obj 425 367 *~;
#X floatatom 244 237 5 0 0 0 - - - 0;
#X obj 246 264 / 100;
#X obj 97 284 *~;
#X msg 309 204 0;
#X obj 176 293 *~;
#X obj 437 10 loadbang;
#X obj 277 426 bng 15 250 50 0 empty empty empty 17 7 0 10 #fcfcfc
#000000 #000000;
#X obj 277 450 savepanel;
#X obj 277 498 writesf~ 2;
#X msg 277 474 open -bytes 3 \$1;
#X msg 216 430 start;
#X msg 220 466 stop;
#X msg 406 39 600;
#X msg 776 53 \; mel 0 50 52 54 57;
#X msg 786 145 \; mel 0 50 50 50 56;
#X connect 0 0 1 0;
#X connect 1 0 7 0;
#X connect 1 0 8 0;
#X connect 1 0 12 0;
#X connect 4 0 2 0;
#X connect 4 0 35 0;
#X connect 5 0 1 1;
#X connect 5 0 17 0;
#X connect 6 0 1 1;
#X connect 6 0 17 0;
#X connect 7 0 29 0;
#X connect 7 1 31 0;
#X connect 8 0 25 0;
#X connect 8 1 26 0;
#X connect 9 0 10 0;
#X connect 10 0 25 1;
#X connect 10 0 26 1;
#X connect 11 0 9 0;
#X connect 12 0 15 0;
#X connect 12 1 24 0;
#X connect 13 0 14 0;
#X connect 14 0 15 1;
#X connect 14 0 24 1;
#X connect 15 0 4 0;
#X connect 16 0 13 0;
#X connect 17 0 18 0;
#X connect 17 1 23 0;
#X connect 18 0 4 0;
#X connect 19 0 20 0;
#X connect 20 0 18 1;
#X connect 20 0 23 1;
#X connect 21 0 19 0;
#X connect 22 0 2 1;
#X connect 22 0 35 1;
#X connect 23 0 22 0;
#X connect 24 0 22 0;
#X connect 25 0 4 0;
#X connect 26 0 22 0;
#X connect 27 0 28 0;
#X connect 28 0 29 1;
#X connect 28 0 31 1;
#X connect 29 0 4 0;
#X connect 30 0 27 0;
#X connect 31 0 22 0;
#X connect 32 0 5 0;
#X connect 33 0 34 0;
#X connect 34 0 36 0;
#X connect 36 0 35 0;
#X connect 37 0 35 0;
#X connect 38 0 35 0;
#X connect 39 0 1 1;
#X connect 39 0 17 0;
